<svg xmlns="http://www.w3.org/2000/svg" xmlns:svg="http://www.w3.org/2000/svg" id="SVGRoot" width="128" height="128" version="1.1" viewBox="0 0 128 128"><metadata id="metadata836"/><g id="layer1"><rect id="rect1410" width="80" height="80" x="25" y="20" ry="15" style="opacity:1;fill:#fff;fill-opacity:1;stroke:#000;stroke-opacity:.160751"/><g id="g961" transform="matrix(1.1258413,0,0,1.1258413,-10.143984,-3.8467783)"><rect id="rect891" width="5" height="40" x="50" y="35" ry="2.5" style="fill:#6abcff;fill-opacity:1;stroke:none;stroke-width:.8;stroke-linejoin:round;paint-order:markers fill stroke"/><rect style="fill:#6abcff;fill-opacity:1;stroke:none;stroke-width:.8;stroke-linejoin:round;paint-order:markers fill stroke" id="rect891-3" width="5" height="40" x="65" y="35" ry="2.5"/><rect style="fill:#6abcff;fill-opacity:1;stroke:none;stroke-width:.8;stroke-linejoin:round;paint-order:markers fill stroke" id="rect891-5" width="5" height="40" x="80" y="35" ry="2.5"/><path id="path866-5" d="m 79.999999,70 a 5.9383254,5.9383254 0 0 1 -2.650988,-7.954503 5.9383254,5.9383254 0 0 1 7.945983,-2.676415 5.9383254,5.9383254 0 0 1 2.701816,7.937382 5.9383254,5.9383254 0 0 1 -7.928701,2.727188" style="fill:#6a71ff;fill-opacity:1;stroke:none;stroke-width:.135733;stroke-linejoin:round;paint-order:markers fill stroke"/><path style="fill:#6a71ff;fill-opacity:1;stroke:none;stroke-width:.135733;stroke-linejoin:round;paint-order:markers fill stroke" id="path866-5-6" d="m 64.999999,60 a 5.9383254,5.9383254 0 0 1 -2.650988,-7.954503 5.9383254,5.9383254 0 0 1 7.945983,-2.676415 5.9383254,5.9383254 0 0 1 2.701816,7.937382 5.9383254,5.9383254 0 0 1 -7.928701,2.727188"/><path style="fill:#6a71ff;fill-opacity:1;stroke:none;stroke-width:.135733;stroke-linejoin:round;paint-order:markers fill stroke" id="path866-5-2" d="m 49.999999,50 a 5.9383254,5.9383254 0 0 1 -2.650988,-7.954503 5.9383254,5.9383254 0 0 1 7.945983,-2.676415 5.9383254,5.9383254 0 0 1 2.701816,7.937382 5.9383254,5.9383254 0 0 1 -7.928701,2.727188"/></g></g></svg>
