<svg xmlns="http://www.w3.org/2000/svg" xmlns:svg="http://www.w3.org/2000/svg" id="SVGRoot" width="128" height="128" version="1.1" viewBox="0 0 128 128"><metadata id="metadata836"/><g id="layer1"><rect style="opacity:1;fill:#fff;fill-opacity:1;stroke:#000;stroke-opacity:.160751" id="rect1410" width="80" height="80" x="25" y="20" ry="15"/><path id="path833-3" d="M 54.479057,85.939753 A 27.786036,17.366274 0 0 1 42.074811,62.677291 27.786036,17.366274 0 0 1 79.254883,54.850275 27.786036,17.366274 0 0 1 91.896957,78.06267 27.786036,17.366274 0 0 1 54.797752,86.038168" style="fill:#0063ff;fill-opacity:1;stroke-width:1.11145;stroke-linejoin:round;paint-order:markers fill stroke"/><path id="path835-6" d="M 59.840656,59.921267 A 13.893018,13.893018 0 0 1 53.638533,41.311299 13.893018,13.893018 0 0 1 72.228569,35.049687 13.893018,13.893018 0 0 1 78.549606,53.619601 13.893018,13.893018 0 0 1 60.000003,59.999999" style="fill:#00a8ff;fill-opacity:1;stroke-width:1.11145;stroke-linejoin:round;paint-order:markers fill stroke"/></g></svg>